HIERARCHY
ROOT Hips
{
	OFFSET 53.445099 -9.667865 95.969299
	CHANNELS 6 Xposition Yposition Zposition Xrotation Yrotation Zrotation
	JOINT spine
	{
		OFFSET 0.000000 -0.467661 8.132492
		CHANNELS 3 Xrotation Yrotation Zrotation
		JOINT spine1
		{
			OFFSET 0.000000 -0.000002 10.349800
			CHANNELS 3 Xrotation Yrotation Zrotation
			JOINT spine2
			{
				OFFSET 0.000000 -0.000001 9.916992
				CHANNELS 3 Xrotation Yrotation Zrotation
				JOINT Neck
				{
					OFFSET 0.000000 -1.213904 25.461006
					CHANNELS 3 Xrotation Yrotation Zrotation
					JOINT Head
					{
						OFFSET 0.000000 -0.000001 7.692444
						CHANNELS 3 Xrotation Yrotation Zrotation
						End Site
						{
							OFFSET 0.000000 6.140627 18.619995
						}
					}
				}
				JOINT RightShoulder
				{
					OFFSET -4.175751 0.581443 10.709602
					CHANNELS 3 Xrotation Yrotation Zrotation
					JOINT RightArm
					{
						OFFSET 0.000000 -0.000002 14.046600
						CHANNELS 3 Xrotation Yrotation Zrotation
						JOINT RightArmRoll
						{
							OFFSET 0.000000 -0.000002 7.090988
							CHANNELS 3 Xrotation Yrotation Zrotation
							JOINT RightForeArm
							{
								OFFSET 0.000000 -0.000003 20.653503
								CHANNELS 3 Xrotation Yrotation Zrotation
								JOINT RightForeArmRoll
								{
									OFFSET 0.000000 -0.000002 7.957184
									CHANNELS 3 Xrotation Yrotation Zrotation
									JOINT RightHand
									{
										OFFSET 0.000000 -0.000002 15.968307
										CHANNELS 3 Xrotation Yrotation Zrotation
										End Site
										{
											OFFSET 0.000000 0.000000 0.100006
										}
									}
								}
							}
						}
					}
				}
				JOINT LeftShoulder
				{
					OFFSET 4.175751 0.581443 10.709602
					CHANNELS 3 Xrotation Yrotation Zrotation
					JOINT LeftArm
					{
						OFFSET 0.000000 -0.000002 14.046600
						CHANNELS 3 Xrotation Yrotation Zrotation
						JOINT LeftArmRoll
						{
							OFFSET 0.000000 -0.000002 7.090988
							CHANNELS 3 Xrotation Yrotation Zrotation
							JOINT LeftForeArm
							{
								OFFSET 0.000000 -0.000003 20.653503
								CHANNELS 3 Xrotation Yrotation Zrotation
								JOINT LeftForeArmRoll
								{
									OFFSET 0.000000 -0.000002 7.957184
									CHANNELS 3 Xrotation Yrotation Zrotation
									JOINT LeftHand
									{
										OFFSET 0.000000 -0.000002 15.968307
										CHANNELS 3 Xrotation Yrotation Zrotation
										End Site
										{
											OFFSET 0.000000 0.000000 0.100006
										}
									}
								}
							}
						}
					}
				}
			}
		}
	}
	JOINT RightUpLeg
	{
		OFFSET -7.208340 1.108840 -1.321823
		CHANNELS 3 Xrotation Yrotation Zrotation
		JOINT RightUpLegRoll
		{
			OFFSET 0.000000 -0.000003 18.723801
			CHANNELS 3 Xrotation Yrotation Zrotation
			JOINT RightLeg
			{
				OFFSET 0.000000 0.000004 -23.186600
				CHANNELS 3 Xrotation Yrotation Zrotation
				JOINT RightLegRoll
				{
					OFFSET 0.000000 -0.000004 23.262398
					CHANNELS 3 Xrotation Yrotation Zrotation
					JOINT RightFoot
					{
						OFFSET 0.000000 -0.000004 19.362099
						CHANNELS 3 Xrotation Yrotation Zrotation
						JOINT RightToeBase
						{
							OFFSET 0.000000 -0.000002 16.185699
							CHANNELS 3 Xrotation Yrotation Zrotation
							End Site
							{
								OFFSET 0.006859 0.903520 7.838623
							}
						}
					}
				}
			}
		}
	}
	JOINT LeftUpLeg
	{
		OFFSET 7.208340 1.108840 -1.321823
		CHANNELS 3 Xrotation Yrotation Zrotation
		JOINT LeftUpLegRoll
		{
			OFFSET 0.000000 -0.000003 18.723900
			CHANNELS 3 Xrotation Yrotation Zrotation
			JOINT LeftLeg
			{
				OFFSET 0.000000 -0.000004 23.186501
				CHANNELS 3 Xrotation Yrotation Zrotation
				JOINT LeftLegRoll
				{
					OFFSET 0.000000 -0.000004 23.477493
					CHANNELS 3 Xrotation Yrotation Zrotation
					JOINT LeftFoot
					{
						OFFSET 0.000000 -0.000004 19.147003
						CHANNELS 3 Xrotation Yrotation Zrotation
						JOINT LeftToeBase
						{
							OFFSET 0.000000 -0.000002 16.185699
							CHANNELS 3 Xrotation Yrotation Zrotation
							End Site
							{
								OFFSET -0.030746 0.903521 7.838623
							}
						}
					}
				}
			}
		}
	}
}
MOTION
Frames: 9
Frame Time: 0.041667
53.661499 -10.436916 95.967392 -5.350200 -0.110281 0.269910 -1.644748 -0.177721 0.131991 0.717715 -0.361337 0.258814 2.362797 -0.358589 0.263081 10.125623 8.010385 0.556368 1.557737 6.622694 -0.754332 -15.499318 -59.483462 -18.324043 -49.897373 -138.174904 -99.073943 0.000002 0.000001 -0.000004 102.117141 3.206903 -12.917464 -0.000001 -0.000006 -3.000000 -5.000221 -7.998782 0.000156 -11.603265 61.659731 13.830741 -55.548317 149.122646 85.280246 0.000000 -0.000023 0.000003 93.684698 -3.569758 7.505865 -0.000000 -0.000012 2.999999 -5.000245 7.998913 -0.000148 0.810883 -171.194880 4.960401 -179.999991 0.000006 -0.953995 167.492494 -1.365807 -0.710952 0.000003 -0.000002 0.090803 71.325364 6.054406 4.270102 25.459064 -7.355610 0.003131 1.639027 172.969855 -2.392676 -0.000020 -0.000004 -0.995007 -13.114417 1.238289 0.710086 -0.000005 -0.000002 -0.216369 73.275437 -6.194822 -3.828575 25.459378 7.355622 -0.003694 
53.655399 -10.445313 95.975800 -5.354454 -0.111059 0.275971 -1.640197 -0.178688 0.134576 0.727323 -0.365457 0.263991 2.372397 -0.362696 0.268301 10.089003 8.005484 0.560663 1.525760 6.667987 -0.755609 -15.528474 -59.451701 -18.357831 -49.900344 -137.906751 -99.153610 0.000002 -0.000001 -0.000006 102.312928 3.302039 -13.106274 0.000001 -0.000009 -3.000003 -5.000220 -7.998787 0.000154 -11.690163 61.662060 13.932093 -55.527430 148.978447 85.405163 0.000007 -0.000024 -0.000001 93.655315 -3.611385 7.528273 -0.000001 -0.000013 3.000001 -5.000244 7.998913 -0.000146 0.817398 -171.190891 4.964836 -179.999991 0.000006 -0.953995 167.489872 -1.367753 -0.710451 0.000002 -0.000002 0.090850 71.329018 6.052959 4.272563 25.459064 -7.355611 0.003131 1.640424 172.970852 -2.392509 -0.000020 -0.000004 -0.994831 -13.121614 1.237270 0.710180 -0.000005 -0.000003 -0.216665 73.279597 -6.194508 -3.830696 25.459380 7.355620 -0.003694 
53.662399 -10.443916 95.972397 -5.358189 -0.111827 0.282250 -1.635988 -0.179608 0.137070 0.736210 -0.369406 0.269043 2.381289 -0.366628 0.273396 10.058526 7.999727 0.564539 1.487863 6.713708 -0.756489 -15.560103 -59.421068 -18.394567 -49.907608 -137.641112 -99.236303 0.000001 -0.000000 -0.000000 102.504084 3.395017 -13.292042 0.000002 -0.000008 -3.000001 -5.000220 -7.998785 0.000153 -11.773467 61.664546 14.029283 -55.511748 148.832759 85.532567 0.000001 -0.000023 0.000001 93.625433 -3.652244 7.550628 -0.000000 -0.000013 3.000000 -5.000244 7.998913 -0.000147 0.823547 -171.187900 4.969089 -179.999991 0.000006 -0.953996 167.487467 -1.369686 -0.710941 0.000003 -0.000001 0.090898 71.332699 6.051602 4.274840 25.459064 -7.355612 0.003130 1.641440 172.970852 -2.392303 -0.000019 -0.000004 -0.994658 -13.128309 1.236282 0.710269 -0.000005 -0.000003 -0.216915 73.283442 -6.194203 -3.832840 25.459378 7.355621 -0.003694 
53.658901 -10.448416 95.976898 -5.361348 -0.112538 0.288653 -1.632221 -0.180458 0.139424 0.744159 -0.373082 0.273887 2.389241 -0.370285 0.278281 10.035440 7.993021 0.568035 1.443804 6.759115 -0.756735 -15.593537 -59.392723 -18.433475 -49.921760 -137.379529 -99.322316 0.000001 -0.000001 -0.000003 102.686922 3.484251 -13.471453 0.000001 -0.000007 -2.999998 -5.000221 -7.998783 0.000149 -11.851414 61.667551 14.120264 -55.502623 148.686402 85.657375 0.000001 -0.000021 -0.000000 93.596179 -3.691257 7.572914 -0.000001 -0.000013 3.000000 -5.000247 7.998919 -0.000144 0.829240 -171.184922 4.973085 -179.999991 0.000006 -0.953995 167.485364 -1.371636 -0.710415 0.000002 -0.000001 0.090945 71.336210 6.050375 4.276744 25.459062 -7.355610 0.003130 1.642053 172.970852 -2.392068 -0.000020 -0.000005 -0.994488 -13.134507 1.235374 0.710363 -0.000005 -0.000003 -0.217104 73.286857 -6.193894 -3.834806 25.459378 7.355620 -0.003693 
53.656502 -10.450019 95.975395 -5.363820 -0.113139 0.295078 -1.628998 -0.181219 0.141589 0.750955 -0.376386 0.278436 2.396031 -0.373567 0.282869 10.020992 7.985263 0.571192 1.393322 6.803449 -0.756105 -15.628279 -59.368107 -18.473981 -49.943211 -137.125460 -99.408841 -0.000001 -0.000002 -0.000006 102.857540 3.568417 -13.641211 0.000001 -0.000009 -3.000002 -5.000222 -7.998782 0.000153 -11.922207 61.671240 14.202946 -55.501899 148.539703 85.775783 -0.000002 -0.000025 -0.000000 93.568633 -3.727472 7.592154 0.000004 -0.000013 3.000002 -5.000244 7.998911 -0.000147 0.834399 -171.181930 4.976729 -179.999991 0.000006 -0.952998 167.483642 -1.373574 -0.710889 0.000003 -0.000002 0.090992 71.339557 6.049299 4.278388 25.459066 -7.355613 0.003132 1.642225 172.970852 -2.391839 -0.000020 -0.000004 -0.994321 -13.140004 1.234538 0.710454 -0.000004 -0.000003 -0.217223 73.289938 -6.193541 -3.836785 25.459378 7.355621 -0.003694 
53.661900 -10.451818 95.975502 -5.365540 -0.113581 0.301430 -1.626419 -0.181869 0.143519 0.756378 -0.379217 0.282608 2.401461 -0.376375 0.287074 10.016459 7.976345 0.574030 1.336175 6.845967 -0.754369 -15.663593 -59.348272 -18.515260 -49.972970 -136.881690 -99.493829 -0.000000 -0.000004 -0.000005 103.012251 3.646333 -13.797968 0.000003 -0.000008 -3.000003 -5.000221 -7.998788 0.000148 -11.984027 61.675809 14.275215 -55.511031 148.393578 85.883079 0.000001 -0.000024 -0.000003 93.543723 -3.759677 7.609347 0.000001 -0.000015 3.000000 -5.000242 7.998916 -0.000145 0.838925 -171.179922 4.979882 -179.999991 0.000006 -0.952998 167.482331 -1.375515 -0.710355 0.000003 -0.000001 0.091040 71.342760 6.048413 4.279566 25.459062 -7.355610 0.003130 1.641914 172.970852 -2.391641 -0.000019 -0.000005 -0.994160 -13.144703 1.233813 0.710547 -0.000005 -0.000002 -0.217259 73.292479 -6.193184 -3.838590 25.459380 7.355620 -0.003693 
53.666698 -10.453320 95.976799 -5.366420 -0.113817 0.307611 -1.624589 -0.182388 0.145166 0.760212 -0.381477 0.286317 2.405293 -0.378608 0.290811 10.023095 7.966173 0.576600 1.272108 6.885938 -0.751290 -15.698970 -59.334748 -18.556733 -50.013766 -136.649955 -99.577649 0.000002 -0.000002 -0.000004 103.147154 3.716655 -13.936441 0.000001 -0.000006 -3.000000 -5.000221 -7.998782 0.000157 -12.035118 61.681485 14.335027 -55.533126 148.247371 85.977246 0.000004 -0.000023 0.000003 93.522679 -3.786931 7.624495 0.000002 -0.000015 3.000002 -5.000246 7.998911 -0.000146 0.842728 -171.177941 4.982483 -179.999991 0.000006 -0.952998 167.481621 -1.377471 -0.710807 0.000003 -0.000002 0.091088 71.345725 6.047772 4.280100 25.459064 -7.355611 0.003130 1.641103 172.969855 -2.391540 -0.000019 -0.000004 -0.994003 -13.148599 1.233209 0.710641 -0.000004 -0.000003 -0.217199 73.294487 -6.192825 -3.840126 25.459380 7.355620 -0.003694 
53.667099 -10.455017 95.972191 -5.366370 -0.113795 0.313523 -1.623605 -0.182753 0.146482 0.762239 -0.383068 0.289477 2.407323 -0.380168 0.293994 10.042133 7.954659 0.578949 1.200874 6.922594 -0.746645 -15.733761 -59.328621 -18.597639 -50.066328 -136.432947 -99.658320 0.000002 -0.000001 -0.000003 103.258479 3.778128 -14.055248 0.000002 -0.000009 -2.999999 -5.000218 -7.998783 0.000157 -12.073654 61.688479 14.380258 -55.568305 148.102953 86.051627 0.000004 -0.000025 -0.000002 93.506396 -3.807993 7.636597 0.000004 -0.000015 3.000003 -5.000243 7.998912 -0.000147 0.845720 -171.176944 4.984406 -179.999991 0.000005 -0.952998 167.481511 -1.378443 -0.710029 0.000003 -0.000002 0.091137 71.348334 6.047383 4.280195 25.459062 -7.355612 0.003131 1.639756 172.968858 -2.391533 -0.000020 -0.000004 -0.993853 -13.151398 1.232748 0.710734 -0.000004 -0.000003 -0.217033 73.295853 -6.192466 -3.841598 25.459380 7.355622 -0.003694 
53.670399 -10.456918 95.973701 -5.365269 -0.113455 0.319501 -1.623417 -0.183003 0.147496 0.762551 -0.384126 0.292246 2.407633 -0.381190 0.296782 10.074628 7.941307 0.581112 1.118245 6.958348 -0.740323 -15.771031 -59.327884 -18.641577 -50.125488 -136.227686 -99.735618 0.000000 0.000000 -0.000003 103.349348 3.833612 -14.157789 0.000000 -0.000007 -3.000000 -5.000220 -7.998778 0.000151 -12.101477 61.696716 14.413060 -55.616209 147.958331 86.118174 0.000004 -0.000024 0.000001 93.492859 -3.825019 7.645668 -0.000002 -0.000014 3.000001 -5.000246 7.998916 -0.000144 0.847973 -171.176958 4.985691 -179.999991 0.000006 -0.952998 167.482222 -1.379421 -0.710227 0.000003 -0.000002 0.091185 71.350806 6.047214 4.279632 25.459066 -7.355613 0.003131 1.637603 172.967861 -2.391638 -0.000020 -0.000004 -0.993708 -13.153397 1.232387 0.710827 -0.000005 -0.000003 -0.216735 73.296659 -6.192017 -3.842987 25.459382 7.355620 -0.003693 
